<?xml version="1.0" encoding="utf-8"?>
<!-- Generator: Adobe Illustrator 18.0.0, SVG Export Plug-In . SVG Version: 6.00 Build 0)  -->
<!DOCTYPE svg PUBLIC "-//W3C//DTD SVG 1.1//EN" "http://www.w3.org/Graphics/SVG/1.1/DTD/svg11.dtd">
<svg version="1.1" id="Layer_1" xmlns="http://www.w3.org/2000/svg" xmlns:xlink="http://www.w3.org/1999/xlink" x="0px" y="0px"
	 viewBox="0 0 64 64" enable-background="new 0 0 64 64" xml:space="preserve">
<g>
	<g>
		<path d="M15,64h-4c-4.4,0-8-3.6-8-8V8h4v48c0,2.2,1.8,4,4,4h4V64z"/>
	</g>
</g>
<path d="M58,12c-2.2,0-4-1.8-4-4s1.8-4,4-4V0H11C6.6,0,3,3.6,3,8s3.6,8,8,8h2v48h47V12H58z M11,12c-2.2,0-4-1.8-4-4s1.8-4,4-4h40.1
	C50.4,5.2,50,6.5,50,8s0.4,2.8,1.1,4H13H11z M35,16h8v14.3l-4-2.7l-4,2.7V16z M56,60H17V16h14v21.7l8-5.3l8,5.3V16h9V60z"/>
</svg>
